<svg width="300" height="340" viewBox="0 0 300 340" xmlns="http://www.w3.org/2000/svg">
  <defs>
    <linearGradient id="sgpen" x1="0" y1="0" x2="1" y2="1"><stop offset="0" stop-color="#FFB81C"/><stop offset="1" stop-color="#FF6A00"/></linearGradient>
    <filter id="sgsh" x="-20%" y="-20%" width="140%" height="140%"><feDropShadow dx="0" dy="10" stdDeviation="14" flood-color="#000" flood-opacity="0.12"/></filter>
  </defs>
  <!-- back doc -->
  <rect x="60" y="34" width="180" height="238" rx="16" fill="#fff" opacity=".55" transform="rotate(6 150 150)"/>
  <!-- main doc -->
  <g filter="url(#sgsh)" transform="rotate(-4 150 160)">
    <rect x="46" y="30" width="188" height="250" rx="16" fill="#ffffff"/>
    <rect x="70" y="58" width="90" height="12" rx="6" fill="#26262b"/>
    <rect x="70" y="86" width="140" height="8" rx="4" fill="#d9d5cc"/>
    <rect x="70" y="104" width="128" height="8" rx="4" fill="#d9d5cc"/>
    <rect x="70" y="122" width="138" height="8" rx="4" fill="#d9d5cc"/>
    <!-- signed field 1 -->
    <rect x="70" y="150" width="66" height="26" rx="6" fill="#FFF3DC" stroke="#FFB81C" stroke-width="1.5"/>
    <path d="M80,166 q8,-12 16,0 t16,-2" stroke="url(#sgpen)" stroke-width="3" fill="none" stroke-linecap="round"/>
    <circle cx="150" cy="163" r="11" fill="#28c76f"/>
    <path d="M145,163 l4,4 l7,-8" stroke="#fff" stroke-width="2.5" fill="none" stroke-linecap="round" stroke-linejoin="round"/>
    <!-- signed field 2 -->
    <rect x="70" y="188" width="66" height="26" rx="6" fill="#FFF3DC" stroke="#FFB81C" stroke-width="1.5"/>
    <path d="M80,204 q10,-10 18,-2 t14,-4" stroke="url(#sgpen)" stroke-width="3" fill="none" stroke-linecap="round"/>
    <circle cx="150" cy="201" r="11" fill="#28c76f"/>
    <path d="M145,201 l4,4 l7,-8" stroke="#fff" stroke-width="2.5" fill="none" stroke-linecap="round" stroke-linejoin="round"/>
    <!-- signed field 3 -->
    <rect x="70" y="226" width="66" height="26" rx="6" fill="#FFF3DC" stroke="#FFB81C" stroke-width="1.5"/>
    <path d="M80,242 q8,-11 17,-1 t15,-3" stroke="url(#sgpen)" stroke-width="3" fill="none" stroke-linecap="round"/>
    <circle cx="150" cy="239" r="11" fill="#28c76f"/>
    <path d="M145,239 l4,4 l7,-8" stroke="#fff" stroke-width="2.5" fill="none" stroke-linecap="round" stroke-linejoin="round"/>
  </g>
  <!-- pen -->
  <g transform="rotate(24 232 250)">
    <rect x="224" y="150" width="16" height="118" rx="8" fill="url(#sgpen)"/>
    <path d="M224,268 l8,20 l8,-20 Z" fill="#26262b"/>
    <rect x="224" y="150" width="16" height="16" rx="8" fill="#FFC93C"/>
  </g>
</svg>
